<svg xmlns="http://www.w3.org/2000/svg" width="28" height="28" viewBox="0 0 28 28">
  <path fill="#162438" fill-rule="evenodd" d="M14,1 L7,1 L7,3.47619048 L14,3.47619048 L14,1 L14,1 Z M9.33333333,17.0952381 L11.6666667,17.0952381 L11.6666667,9.66666667 L9.33333333,9.66666667 L9.33333333,17.0952381 L9.33333333,17.0952381 Z M18.7016667,8.91142857 L20.3583333,7.15333333 C19.8566667,6.52190476 19.3083333,5.92761905 18.7133333,5.40761905 L17.0566667,7.16571429 C15.2483333,5.63047619 12.9733333,4.71428571 10.5,4.71428571 C4.70166667,4.71428571 0,9.70380952 0,15.8571429 C0,22.0104762 4.69,27 10.5,27 C16.31,27 21,22.0104762 21,15.8571429 C21,13.232381 20.1366667,10.8180952 18.7016667,8.91142857 L18.7016667,8.91142857 Z M10.5,24.5238095 C5.985,24.5238095 2.33333333,20.6485714 2.33333333,15.8571429 C2.33333333,11.0657143 5.985,7.19047619 10.5,7.19047619 C15.015,7.19047619 18.6666667,11.0657143 18.6666667,15.8571429 C18.6666667,20.6485714 15.015,24.5238095 10.5,24.5238095 L10.5,24.5238095 Z"/>
</svg>
