<svg xmlns="http://www.w3.org/2000/svg" width="28" height="28" viewBox="0 0 28 28">
  <path fill="#162438" fill-rule="evenodd" d="M10,13 C8.9,13 8,13.9 8,15 C8,16.1 8.9,17 10,17 C11.1,17 12,16.1 12,15 C12,13.9 11.1,13 10,13 L10,13 Z M16,15 C16,11.69 13.31,9 10,9 C6.69,9 4,11.69 4,15 C4,17.22 5.21,19.15 7,20.19 L8,18.45 C6.81,17.75 6,16.48 6,15 C6,12.79 7.79,11 10,11 C12.21,11 14,12.79 14,15 C14,16.48 13.19,17.75 12,18.45 L13,20.19 C14.79,19.15 16,17.22 16,15 L16,15 Z M10,5 C4.48,5 0,9.48 0,15 C0,18.7 2.01,21.92 4.99,23.65 L5.99,21.92 C3.61,20.53 2,17.96 2,15 C2,10.58 5.58,7 10,7 C14.42,7 18,10.58 18,15 C18,17.96 16.39,20.53 14,21.92 L15,23.65 C17.99,21.92 20,18.7 20,15 C20,9.48 15.52,5 10,5 L10,5 Z"/>
</svg>
